<mxfile host="app.diagrams.net" agent="Mozilla/5.0 (Windows NT 10.0; Win64; x64) AppleWebKit/537.36 (KHTML, like Gecko) Chrome/127.0.0.0 Safari/537.36" version="24.7.6">
  <diagram name="Page-1" id="01XeXQfaEy9si0Lqdy58">
    <mxGraphModel dx="683" dy="355" grid="0" gridSize="10" guides="1" tooltips="1" connect="1" arrows="1" fold="1" page="1" pageScale="1" pageWidth="850" pageHeight="1100" math="0" shadow="0">
      <root>
        <mxCell id="0" />
        <mxCell id="1" parent="0" />
        <mxCell id="BwMNJa5PFZdC-EJqHLHx-1" value="0" style="ellipse;whiteSpace=wrap;html=1;aspect=fixed;fillColor=#dae8fc;strokeColor=#6c8ebf;" vertex="1" parent="1">
          <mxGeometry x="80" y="280" width="40" height="40" as="geometry" />
        </mxCell>
        <mxCell id="BwMNJa5PFZdC-EJqHLHx-2" value="1" style="ellipse;whiteSpace=wrap;html=1;aspect=fixed;fillColor=#dae8fc;strokeColor=#6c8ebf;" vertex="1" parent="1">
          <mxGeometry x="160" y="280" width="40" height="40" as="geometry" />
        </mxCell>
        <mxCell id="BwMNJa5PFZdC-EJqHLHx-4" value="T" style="ellipse;whiteSpace=wrap;html=1;aspect=fixed;fillColor=#e1d5e7;strokeColor=#9673a6;" vertex="1" parent="1">
          <mxGeometry x="233" y="431" width="40" height="40" as="geometry" />
        </mxCell>
        <mxCell id="BwMNJa5PFZdC-EJqHLHx-7" value="2" style="ellipse;whiteSpace=wrap;html=1;aspect=fixed;fillColor=#dae8fc;strokeColor=#6c8ebf;" vertex="1" parent="1">
          <mxGeometry x="240" y="280" width="40" height="40" as="geometry" />
        </mxCell>
        <mxCell id="BwMNJa5PFZdC-EJqHLHx-15" value="..." style="text;html=1;align=center;verticalAlign=middle;whiteSpace=wrap;rounded=0;" vertex="1" parent="1">
          <mxGeometry x="310" y="280" width="60" height="30" as="geometry" />
        </mxCell>
        <mxCell id="BwMNJa5PFZdC-EJqHLHx-16" value="n" style="ellipse;whiteSpace=wrap;html=1;aspect=fixed;fillColor=#dae8fc;strokeColor=#6c8ebf;" vertex="1" parent="1">
          <mxGeometry x="400" y="280" width="40" height="40" as="geometry" />
        </mxCell>
        <mxCell id="BwMNJa5PFZdC-EJqHLHx-33" value="" style="curved=1;endArrow=classic;html=1;rounded=0;exitX=1;exitY=0.5;exitDx=0;exitDy=0;entryX=0.076;entryY=0.16;entryDx=0;entryDy=0;fillColor=#d5e8d4;strokeColor=#82b366;entryPerimeter=0;" edge="1" parent="1" source="BwMNJa5PFZdC-EJqHLHx-1" target="BwMNJa5PFZdC-EJqHLHx-4">
          <mxGeometry width="50" height="50" relative="1" as="geometry">
            <mxPoint x="330" y="350" as="sourcePoint" />
            <mxPoint x="380" y="300" as="targetPoint" />
            <Array as="points">
              <mxPoint x="130" y="300" />
              <mxPoint x="150" y="310" />
            </Array>
          </mxGeometry>
        </mxCell>
        <mxCell id="BwMNJa5PFZdC-EJqHLHx-35" value="&lt;b&gt;לסחוט&lt;/b&gt;" style="text;html=1;align=center;verticalAlign=middle;whiteSpace=wrap;rounded=0;" vertex="1" parent="1">
          <mxGeometry x="110" y="260" width="60" height="30" as="geometry" />
        </mxCell>
        <mxCell id="BwMNJa5PFZdC-EJqHLHx-36" value="" style="endArrow=classic;html=1;rounded=0;exitX=1;exitY=0.5;exitDx=0;exitDy=0;entryX=0;entryY=0.5;entryDx=0;entryDy=0;fillColor=#d5e8d4;strokeColor=#82b366;" edge="1" parent="1" source="BwMNJa5PFZdC-EJqHLHx-1" target="BwMNJa5PFZdC-EJqHLHx-2">
          <mxGeometry width="50" height="50" relative="1" as="geometry">
            <mxPoint x="330" y="350" as="sourcePoint" />
            <mxPoint x="380" y="300" as="targetPoint" />
          </mxGeometry>
        </mxCell>
        <mxCell id="BwMNJa5PFZdC-EJqHLHx-37" value="(0, p)" style="edgeLabel;html=1;align=center;verticalAlign=middle;resizable=0;points=[];" vertex="1" connectable="0" parent="BwMNJa5PFZdC-EJqHLHx-36">
          <mxGeometry x="0.6357" y="-1" relative="1" as="geometry">
            <mxPoint x="-13" y="-11" as="offset" />
          </mxGeometry>
        </mxCell>
        <mxCell id="BwMNJa5PFZdC-EJqHLHx-38" value="(0, 1-p)" style="edgeLabel;html=1;align=center;verticalAlign=middle;resizable=0;points=[];" vertex="1" connectable="0" parent="1">
          <mxGeometry x="143.85714285714096" y="290" as="geometry">
            <mxPoint x="1" y="31" as="offset" />
          </mxGeometry>
        </mxCell>
        <mxCell id="BwMNJa5PFZdC-EJqHLHx-39" value="" style="endArrow=classic;html=1;rounded=0;exitX=1;exitY=0.5;exitDx=0;exitDy=0;entryX=0;entryY=0.5;entryDx=0;entryDy=0;fillColor=#d5e8d4;strokeColor=#82b366;" edge="1" parent="1" source="BwMNJa5PFZdC-EJqHLHx-2" target="BwMNJa5PFZdC-EJqHLHx-7">
          <mxGeometry width="50" height="50" relative="1" as="geometry">
            <mxPoint x="200" y="320" as="sourcePoint" />
            <mxPoint x="240" y="320" as="targetPoint" />
          </mxGeometry>
        </mxCell>
        <mxCell id="BwMNJa5PFZdC-EJqHLHx-40" value="(0, p)" style="edgeLabel;html=1;align=center;verticalAlign=middle;resizable=0;points=[];" vertex="1" connectable="0" parent="BwMNJa5PFZdC-EJqHLHx-39">
          <mxGeometry x="0.6357" y="-1" relative="1" as="geometry">
            <mxPoint x="-13" y="-11" as="offset" />
          </mxGeometry>
        </mxCell>
        <mxCell id="BwMNJa5PFZdC-EJqHLHx-41" value="" style="endArrow=classic;html=1;rounded=0;exitX=1;exitY=0.5;exitDx=0;exitDy=0;fillColor=#d5e8d4;strokeColor=#82b366;" edge="1" parent="1" source="BwMNJa5PFZdC-EJqHLHx-7">
          <mxGeometry width="50" height="50" relative="1" as="geometry">
            <mxPoint x="290" y="330" as="sourcePoint" />
            <mxPoint x="320" y="300" as="targetPoint" />
          </mxGeometry>
        </mxCell>
        <mxCell id="BwMNJa5PFZdC-EJqHLHx-42" value="(0, p)" style="edgeLabel;html=1;align=center;verticalAlign=middle;resizable=0;points=[];" vertex="1" connectable="0" parent="BwMNJa5PFZdC-EJqHLHx-41">
          <mxGeometry x="0.6357" y="-1" relative="1" as="geometry">
            <mxPoint x="-13" y="-11" as="offset" />
          </mxGeometry>
        </mxCell>
        <mxCell id="BwMNJa5PFZdC-EJqHLHx-43" value="" style="endArrow=classic;html=1;rounded=0;fillColor=#d5e8d4;strokeColor=#82b366;entryX=0;entryY=0.5;entryDx=0;entryDy=0;" edge="1" parent="1" target="BwMNJa5PFZdC-EJqHLHx-16">
          <mxGeometry width="50" height="50" relative="1" as="geometry">
            <mxPoint x="360" y="300" as="sourcePoint" />
            <mxPoint x="330" y="310" as="targetPoint" />
          </mxGeometry>
        </mxCell>
        <mxCell id="BwMNJa5PFZdC-EJqHLHx-44" value="(0, p)" style="edgeLabel;html=1;align=center;verticalAlign=middle;resizable=0;points=[];" vertex="1" connectable="0" parent="BwMNJa5PFZdC-EJqHLHx-43">
          <mxGeometry x="0.6357" y="-1" relative="1" as="geometry">
            <mxPoint x="-13" y="-11" as="offset" />
          </mxGeometry>
        </mxCell>
        <mxCell id="BwMNJa5PFZdC-EJqHLHx-45" value="&lt;b&gt;לסחוט&lt;/b&gt;" style="text;html=1;align=center;verticalAlign=middle;whiteSpace=wrap;rounded=0;" vertex="1" parent="1">
          <mxGeometry x="190" y="260" width="60" height="30" as="geometry" />
        </mxCell>
        <mxCell id="BwMNJa5PFZdC-EJqHLHx-46" value="&lt;b&gt;לסחוט&lt;/b&gt;" style="text;html=1;align=center;verticalAlign=middle;whiteSpace=wrap;rounded=0;" vertex="1" parent="1">
          <mxGeometry x="270" y="260" width="60" height="30" as="geometry" />
        </mxCell>
        <mxCell id="BwMNJa5PFZdC-EJqHLHx-47" value="&lt;b&gt;לסחוט&lt;/b&gt;" style="text;html=1;align=center;verticalAlign=middle;whiteSpace=wrap;rounded=0;" vertex="1" parent="1">
          <mxGeometry x="350" y="260" width="60" height="30" as="geometry" />
        </mxCell>
        <mxCell id="BwMNJa5PFZdC-EJqHLHx-48" value="" style="curved=1;endArrow=classic;html=1;rounded=0;exitX=1;exitY=0.5;exitDx=0;exitDy=0;entryX=0.374;entryY=-0.019;entryDx=0;entryDy=0;fillColor=#d5e8d4;strokeColor=#82b366;entryPerimeter=0;" edge="1" parent="1" source="BwMNJa5PFZdC-EJqHLHx-2" target="BwMNJa5PFZdC-EJqHLHx-4">
          <mxGeometry width="50" height="50" relative="1" as="geometry">
            <mxPoint x="200" y="300" as="sourcePoint" />
            <mxPoint x="246" y="406" as="targetPoint" />
            <Array as="points">
              <mxPoint x="230" y="300" />
            </Array>
          </mxGeometry>
        </mxCell>
        <mxCell id="BwMNJa5PFZdC-EJqHLHx-50" value="(0, 1-p)" style="edgeLabel;html=1;align=center;verticalAlign=middle;resizable=0;points=[];" vertex="1" connectable="0" parent="BwMNJa5PFZdC-EJqHLHx-48">
          <mxGeometry x="0.1961" y="-1" relative="1" as="geometry">
            <mxPoint x="-24" y="-47" as="offset" />
          </mxGeometry>
        </mxCell>
        <mxCell id="BwMNJa5PFZdC-EJqHLHx-51" value="" style="endArrow=classic;html=1;rounded=0;exitX=0.5;exitY=1;exitDx=0;exitDy=0;entryX=0.005;entryY=0.35;entryDx=0;entryDy=0;fillColor=#ffe6cc;strokeColor=#d79b00;entryPerimeter=0;" edge="1" parent="1" source="BwMNJa5PFZdC-EJqHLHx-1" target="BwMNJa5PFZdC-EJqHLHx-4">
          <mxGeometry width="50" height="50" relative="1" as="geometry">
            <mxPoint x="330" y="350" as="sourcePoint" />
            <mxPoint x="380" y="300" as="targetPoint" />
          </mxGeometry>
        </mxCell>
        <mxCell id="BwMNJa5PFZdC-EJqHLHx-52" value="&lt;b&gt;לפרוש&lt;/b&gt;&lt;div&gt;(0, 1)&lt;/div&gt;" style="edgeLabel;html=1;align=center;verticalAlign=middle;resizable=0;points=[];" vertex="1" connectable="0" parent="BwMNJa5PFZdC-EJqHLHx-51">
          <mxGeometry x="-0.3959" relative="1" as="geometry">
            <mxPoint as="offset" />
          </mxGeometry>
        </mxCell>
        <mxCell id="BwMNJa5PFZdC-EJqHLHx-53" value="" style="endArrow=classic;html=1;rounded=0;exitX=0.5;exitY=1;exitDx=0;exitDy=0;entryX=0.219;entryY=0.064;entryDx=0;entryDy=0;fillColor=#ffe6cc;strokeColor=#d79b00;entryPerimeter=0;" edge="1" parent="1" source="BwMNJa5PFZdC-EJqHLHx-2" target="BwMNJa5PFZdC-EJqHLHx-4">
          <mxGeometry width="50" height="50" relative="1" as="geometry">
            <mxPoint x="110" y="330" as="sourcePoint" />
            <mxPoint x="172" y="424" as="targetPoint" />
          </mxGeometry>
        </mxCell>
        <mxCell id="BwMNJa5PFZdC-EJqHLHx-54" value="&lt;b&gt;לפרוש&lt;/b&gt;&lt;div&gt;(1, 1)&lt;/div&gt;" style="edgeLabel;html=1;align=center;verticalAlign=middle;resizable=0;points=[];" vertex="1" connectable="0" parent="BwMNJa5PFZdC-EJqHLHx-53">
          <mxGeometry x="-0.3959" relative="1" as="geometry">
            <mxPoint as="offset" />
          </mxGeometry>
        </mxCell>
        <mxCell id="BwMNJa5PFZdC-EJqHLHx-55" value="" style="endArrow=classic;html=1;rounded=0;exitX=0.5;exitY=1;exitDx=0;exitDy=0;fillColor=#ffe6cc;strokeColor=#d79b00;entryX=0.588;entryY=-0.043;entryDx=0;entryDy=0;entryPerimeter=0;" edge="1" parent="1" target="BwMNJa5PFZdC-EJqHLHx-4">
          <mxGeometry width="50" height="50" relative="1" as="geometry">
            <mxPoint x="260" y="320" as="sourcePoint" />
            <mxPoint x="256" y="428" as="targetPoint" />
          </mxGeometry>
        </mxCell>
        <mxCell id="BwMNJa5PFZdC-EJqHLHx-56" value="&lt;b&gt;לפרוש&lt;/b&gt;&lt;div&gt;(2, 1)&lt;/div&gt;" style="edgeLabel;html=1;align=center;verticalAlign=middle;resizable=0;points=[];" vertex="1" connectable="0" parent="BwMNJa5PFZdC-EJqHLHx-55">
          <mxGeometry x="-0.3959" relative="1" as="geometry">
            <mxPoint as="offset" />
          </mxGeometry>
        </mxCell>
        <mxCell id="BwMNJa5PFZdC-EJqHLHx-57" value="" style="curved=1;endArrow=classic;html=1;rounded=0;exitX=1;exitY=0.5;exitDx=0;exitDy=0;entryX=0.767;entryY=0.017;entryDx=0;entryDy=0;fillColor=#d5e8d4;strokeColor=#82b366;entryPerimeter=0;" edge="1" parent="1" source="BwMNJa5PFZdC-EJqHLHx-7" target="BwMNJa5PFZdC-EJqHLHx-4">
          <mxGeometry width="50" height="50" relative="1" as="geometry">
            <mxPoint x="293" y="299" as="sourcePoint" />
            <mxPoint x="280" y="400" as="targetPoint" />
            <Array as="points">
              <mxPoint x="330" y="300" />
            </Array>
          </mxGeometry>
        </mxCell>
        <mxCell id="BwMNJa5PFZdC-EJqHLHx-58" value="(0, 1-p)" style="edgeLabel;html=1;align=center;verticalAlign=middle;resizable=0;points=[];" vertex="1" connectable="0" parent="BwMNJa5PFZdC-EJqHLHx-57">
          <mxGeometry x="0.1961" y="-1" relative="1" as="geometry">
            <mxPoint x="4" y="-42" as="offset" />
          </mxGeometry>
        </mxCell>
        <mxCell id="BwMNJa5PFZdC-EJqHLHx-59" value="" style="endArrow=classic;html=1;rounded=0;exitX=0;exitY=1;exitDx=0;exitDy=0;fillColor=#ffe6cc;strokeColor=#d79b00;" edge="1" parent="1" source="BwMNJa5PFZdC-EJqHLHx-16">
          <mxGeometry width="50" height="50" relative="1" as="geometry">
            <mxPoint x="396" y="330" as="sourcePoint" />
            <mxPoint x="274" y="445" as="targetPoint" />
          </mxGeometry>
        </mxCell>
        <mxCell id="BwMNJa5PFZdC-EJqHLHx-60" value="&lt;b&gt;לפרוש&lt;/b&gt;&lt;div&gt;(n, 1)&lt;/div&gt;" style="edgeLabel;html=1;align=center;verticalAlign=middle;resizable=0;points=[];" vertex="1" connectable="0" parent="BwMNJa5PFZdC-EJqHLHx-59">
          <mxGeometry x="-0.3959" relative="1" as="geometry">
            <mxPoint as="offset" />
          </mxGeometry>
        </mxCell>
        <mxCell id="BwMNJa5PFZdC-EJqHLHx-61" value="" style="curved=1;endArrow=classic;html=1;rounded=0;exitX=1;exitY=0.5;exitDx=0;exitDy=0;entryX=1;entryY=0;entryDx=0;entryDy=0;fillColor=#d5e8d4;strokeColor=#82b366;" edge="1" parent="1" target="BwMNJa5PFZdC-EJqHLHx-4">
          <mxGeometry width="50" height="50" relative="1" as="geometry">
            <mxPoint x="359" y="300" as="sourcePoint" />
            <mxPoint x="350" y="441" as="targetPoint" />
            <Array as="points">
              <mxPoint x="409" y="300" />
            </Array>
          </mxGeometry>
        </mxCell>
        <mxCell id="BwMNJa5PFZdC-EJqHLHx-62" value="(0, 1-p)" style="edgeLabel;html=1;align=center;verticalAlign=middle;resizable=0;points=[];" vertex="1" connectable="0" parent="BwMNJa5PFZdC-EJqHLHx-61">
          <mxGeometry x="0.1961" y="-1" relative="1" as="geometry">
            <mxPoint x="23" y="-45" as="offset" />
          </mxGeometry>
        </mxCell>
      </root>
    </mxGraphModel>
  </diagram>
</mxfile>
